<?xml version="1.0" encoding="utf-8"?>
<!-- Svg Vector Icons : http://www.onlinewebfonts.com/icon -->
<!DOCTYPE svg PUBLIC "-//W3C//DTD SVG 1.1//EN" "http://www.w3.org/Graphics/SVG/1.1/DTD/svg11.dtd">
<svg version="1.1" xmlns="http://www.w3.org/2000/svg" xmlns:xlink="http://www.w3.org/1999/xlink" x="0px" y="0px" viewBox="0 0 1000 1000" enable-background="new 0 0 1000 1000" xml:space="preserve">
<metadata> Svg Vector Icons : http://www.onlinewebfonts.com/icon </metadata>
<g><path d="M632.2,500l330.4-330.4c36.5-36.5,36.5-95.7,0-132.2c-36.5-36.5-95.7-36.5-132.2,0L500,367.8L169.6,37.4c-36.5-36.5-95.7-36.5-132.2,0c-36.5,36.5-36.5,95.7,0,132.2L367.8,500L37.4,830.4c-36.5,36.5-36.5,95.7,0,132.2c36.5,36.5,95.7,36.5,132.2,0L500,632.2l330.4,330.4c36.5,36.5,95.7,36.5,132.2,0c36.5-36.5,36.5-95.7,0-132.2L632.2,500z"/></g>
</svg>